<?xml version="1.0" encoding="UTF-8" standalone="no"?>
<!DOCTYPE svg PUBLIC "-//W3C//DTD SVG 1.1//EN" "http://www.w3.org/Graphics/SVG/1.1/DTD/svg11.dtd">
<svg width="100%" height="100%" viewBox="0 0 1067 1067" version="1.1" xmlns="http://www.w3.org/2000/svg" xmlns:xlink="http://www.w3.org/1999/xlink" xml:space="preserve" xmlns:serif="http://www.serif.com/" style="fill-rule:evenodd;clip-rule:evenodd;stroke-linejoin:round;stroke-miterlimit:2;">
    <path d="M1067.47,250.531C1067.47,112.552 955.449,0.531 817.47,0.531L250.531,0.531C112.552,0.531 0.531,112.552 0.531,250.531L0.531,817.47C0.531,955.449 112.552,1067.47 250.531,1067.47L817.47,1067.47C955.449,1067.47 1067.47,955.449 1067.47,817.47L1067.47,250.531Z" style="fill:rgb(36,41,56);"/>
    <g transform="matrix(3.01657,0,0,3.01657,-170.473,147.048)">
        <path d="M262,25C272.713,25.039 279.112,25.607 286.5,27.156C293.003,28.52 299.472,30.704 305,33.438C311.482,36.643 315.309,39.438 321.094,45.219C325.266,49.388 329.675,54.163 330.906,55.813L333.156,58.813L330.906,54.625C327.476,48.161 320.534,39.792 314.906,35.344C312.102,33.127 310.146,31.313 310.531,31.313C310.916,31.313 313.967,32.78 317.344,34.563C325.753,39 337.358,50.811 342.813,60.5C345.194,64.731 348.231,71.257 349.531,75C350.831,78.743 352.378,85.73 352.969,90.5C353.71,96.486 353.726,101.907 353.031,108C352.478,112.855 351.076,120.188 349.938,124.313C348.799,128.438 345.708,136.35 343.063,141.906C340.417,147.462 335.77,155.787 332.719,160.406C329.668,165.025 323.582,173.088 319.219,178.313L311.313,187.813L320.219,205.688C325.118,215.509 328.983,223.677 328.813,223.844C328.34,224.306 294.368,216.602 286.906,214.344L280.344,212.375L270,216.906C264.318,219.407 254.409,222.959 247.969,224.813C241.528,226.666 231.529,228.892 225.75,229.75C219.971,230.608 209.679,231.268 202.875,231.219C196.071,231.169 186.9,230.505 182.5,229.719C168.712,227.256 157.741,222.945 146.906,215.75C143.275,213.338 137.2,208.054 133.406,204.031C129.613,200.009 124.795,193.833 122.719,190.281C120.642,186.73 117.737,180.213 116.25,175.813L113.531,167.813L113.531,133.813L116.813,124.313C118.622,119.088 122.157,111.059 124.656,106.469C127.156,101.878 132.51,93.778 136.531,88.469C140.553,83.159 146.601,76.113 150,72.813L156.188,66.813L150.438,75.313C145.08,83.218 137.391,98.047 138.219,98.875C138.419,99.075 140.878,95.77 143.688,91.531C146.497,87.292 152.016,80.116 155.938,75.594C159.859,71.072 166.759,64.171 171.281,60.25C175.803,56.329 183.803,50.226 189.063,46.719C194.322,43.211 202.01,38.791 206.156,36.875C210.302,34.959 217.249,32.232 221.594,30.813C234.5,26.597 245.994,24.942 262,25ZM261.5,36.063C250.981,36.046 244.968,36.582 237.313,38.188C225.376,40.69 212.322,45.129 202.5,50.031C191.151,55.695 179.509,63.925 169.906,73.063C164.963,77.767 158.233,85.168 154.969,89.5C151.705,93.832 146.772,101.971 144,107.594C141.228,113.217 138.061,121.368 136.969,125.719C134.556,135.325 134.352,149.395 136.5,157.844C137.333,161.122 139.655,167.188 141.656,171.313C144.431,177.032 147.351,180.867 153.906,187.438C161.154,194.703 163.99,196.769 172,200.625C185.674,207.207 197.616,209.957 213.5,210.188C217.9,210.251 225.821,209.643 231.125,208.844C240.922,207.367 259.118,201.995 268.875,197.688C271.831,196.382 275.38,195.313 276.781,195.313C278.183,195.312 285.767,197.788 293.625,200.813C301.483,203.837 308.171,206.313 308.469,206.313C308.766,206.312 309,205.952 309,205.5C309,205.048 305.4,199.165 301,192.438C296.6,185.71 293,179.949 293,179.625C293,179.301 296.477,175.365 300.75,170.906C305.023,166.448 310.459,159.887 312.813,156.313C315.166,152.737 318.61,146.663 320.469,142.813C327.302,128.657 330.999,113.722 330.969,100.469C330.959,96.255 330.306,89.662 329.5,85.813C328.694,81.962 326.139,74.988 323.844,70.313C320.639,63.785 317.925,60.051 312.094,54.219C306.716,48.84 302.529,45.692 297.781,43.438C294.094,41.686 287.569,39.331 283.281,38.188C277.18,36.561 272.457,36.08 261.5,36.063ZM219.828,163.28L220.238,144.245L204.008,154.338C195.081,159.888 187.647,164.291 187.486,164.122C186.651,163.241 173.998,141.72 173.997,141.179C173.996,140.83 181.418,136.33 190.49,131.179C199.562,126.029 206.985,121.59 206.985,121.315C206.985,121.04 199.562,116.6 190.49,111.45C181.418,106.299 173.996,101.799 173.997,101.45C173.998,100.914 186.646,79.395 187.476,78.517C187.631,78.353 194.411,82.559 202.543,87.862C210.675,93.166 217.985,97.757 218.786,98.064C220.039,98.545 220.185,95.946 219.831,79.469L219.419,60.315L247.293,60.315L245.873,99.38L252.684,95C256.431,92.591 263.321,88.16 267.996,85.152C272.671,82.145 277.029,79.368 277.681,78.981C278.454,78.521 281.307,82.348 285.895,89.998C289.761,96.445 292.828,101.793 292.71,101.883C292.592,101.974 285.971,105.757 277.996,110.291C270.021,114.825 262.428,119.207 261.123,120.028L258.749,121.522L274.623,130.494C283.353,135.429 291.048,139.782 291.723,140.167C292.587,140.661 290.868,144.339 285.916,152.596C279.964,162.522 278.617,164.182 277.154,163.399C276.203,162.89 269.366,158.704 261.96,154.097C254.555,149.49 247.901,145.357 247.174,144.914C246.087,144.251 245.98,147.498 246.57,163.211L247.287,182.315L219.419,182.315L219.828,163.28Z" style="fill:rgb(246,143,30);"/>
    </g>
</svg>
